<svg width="1600" height="900" viewBox="0 0 1600 900" fill="none" xmlns="http://www.w3.org/2000/svg">
  <defs>
    <linearGradient id="bg" x1="120" y1="64" x2="1486" y2="850" gradientUnits="userSpaceOnUse">
      <stop stop-color="#07101F"/>
      <stop offset="0.6" stop-color="#081427"/>
      <stop offset="1" stop-color="#04070F"/>
    </linearGradient>
    <radialGradient id="orbA" cx="0" cy="0" r="1" gradientUnits="userSpaceOnUse" gradientTransform="translate(248 188) rotate(12) scale(760 410)">
      <stop stop-color="#39E8FF" stop-opacity="0.28"/>
      <stop offset="1" stop-color="#39E8FF" stop-opacity="0"/>
    </radialGradient>
    <radialGradient id="orbB" cx="0" cy="0" r="1" gradientUnits="userSpaceOnUse" gradientTransform="translate(1352 742) rotate(8) scale(760 440)">
      <stop stop-color="#8B72FF" stop-opacity="0.24"/>
      <stop offset="1" stop-color="#8B72FF" stop-opacity="0"/>
    </radialGradient>
    <linearGradient id="grid" x1="160" y1="170" x2="1440" y2="720" gradientUnits="userSpaceOnUse">
      <stop stop-color="#48ECFF"/>
      <stop offset="1" stop-color="#9C7BFF"/>
    </linearGradient>
    <linearGradient id="word" x1="180" y1="248" x2="708" y2="552" gradientUnits="userSpaceOnUse">
      <stop stop-color="#F3FEFF"/>
      <stop offset="1" stop-color="#A8E5FF"/>
    </linearGradient>
    <linearGradient id="ring" x1="984" y1="224" x2="1352" y2="612" gradientUnits="userSpaceOnUse">
      <stop stop-color="#58F0FF"/>
      <stop offset="0.52" stop-color="#74D8FF"/>
      <stop offset="1" stop-color="#9A7CFF"/>
    </linearGradient>
    <linearGradient id="mark" x1="1010" y1="236" x2="1292" y2="610" gradientUnits="userSpaceOnUse">
      <stop stop-color="#F5FEFF"/>
      <stop offset="1" stop-color="#9DDFFF"/>
    </linearGradient>
    <linearGradient id="markEdge" x1="1048" y1="248" x2="1280" y2="572" gradientUnits="userSpaceOnUse">
      <stop stop-color="#7DEEFF"/>
      <stop offset="1" stop-color="#A083FF"/>
    </linearGradient>
  </defs>

  <rect width="1600" height="900" fill="url(#bg)"/>
  <rect width="1600" height="900" fill="url(#orbA)"/>
  <rect width="1600" height="900" fill="url(#orbB)"/>

  <g opacity="0.18">
    <path d="M70 170H1530" stroke="url(#grid)" stroke-width="1.2"/>
    <path d="M70 292H1530" stroke="url(#grid)" stroke-width="0.9"/>
    <path d="M70 414H1530" stroke="url(#grid)" stroke-width="1.1"/>
    <path d="M70 536H1530" stroke="url(#grid)" stroke-width="0.9"/>
    <path d="M70 658H1530" stroke="url(#grid)" stroke-width="1.1"/>
    <path d="M70 780H1530" stroke="url(#grid)" stroke-width="0.9"/>
    <path d="M184 96V820" stroke="url(#grid)" stroke-width="0.9"/>
    <path d="M358 96V820" stroke="url(#grid)" stroke-width="1.1"/>
    <path d="M532 96V820" stroke="url(#grid)" stroke-width="0.9"/>
    <path d="M706 96V820" stroke="url(#grid)" stroke-width="1.1"/>
    <path d="M880 96V820" stroke="url(#grid)" stroke-width="0.9"/>
    <path d="M1054 96V820" stroke="url(#grid)" stroke-width="1.1"/>
    <path d="M1228 96V820" stroke="url(#grid)" stroke-width="0.9"/>
    <path d="M1402 96V820" stroke="url(#grid)" stroke-width="1.1"/>
  </g>

  <g opacity="0.85">
    <text x="170" y="378" fill="url(#word)" font-family="Space Grotesk, Arial, sans-serif" font-size="162" font-weight="700" letter-spacing="4">VTRAI</text>
    <text x="180" y="456" fill="#7ADFFF" font-family="Space Grotesk, Arial, sans-serif" font-size="32" font-weight="500" letter-spacing="7">VECTORA TRUST LAYER</text>
    <text x="180" y="552" fill="#B7CDE6" font-family="Space Grotesk, Arial, sans-serif" font-size="36" font-weight="500" letter-spacing="1.2">Proof before momentum. Verification before action.</text>
  </g>

  <g>
    <circle cx="1160" cy="422" r="230" stroke="url(#ring)" stroke-width="16"/>
    <circle cx="1160" cy="422" r="188" stroke="#81ECFF" stroke-width="2" opacity="0.16"/>
    <path d="M1006 272L1114 272L1160 424L1206 272L1314 272L1202 612L1118 612L1006 272Z" fill="url(#mark)"/>
    <path d="M1062 314H1132L1160 410L1188 314H1258L1178 566H1142L1062 314Z" fill="#0A1527" opacity="0.34"/>
    <path d="M1266 248L1144 434" stroke="url(#markEdge)" stroke-width="24" stroke-linecap="round"/>
  </g>

  <g opacity="0.72">
    <circle cx="190" cy="170" r="4" fill="#81EFFF"/>
    <circle cx="286" cy="132" r="5" fill="#9583FF"/>
    <circle cx="1430" cy="754" r="5" fill="#75EAFF"/>
    <circle cx="1318" cy="224" r="4" fill="#A07FFF"/>
  </g>
</svg>
