<svg width="1600" height="900" viewBox="0 0 1600 900" fill="none" xmlns="http://www.w3.org/2000/svg">
  <defs>
    <linearGradient id="bg" x1="120" y1="60" x2="1480" y2="860" gradientUnits="userSpaceOnUse">
      <stop stop-color="#090E1E"/>
      <stop offset="1" stop-color="#04060F"/>
    </linearGradient>
    <radialGradient id="orbA" cx="0" cy="0" r="1" gradientUnits="userSpaceOnUse" gradientTransform="translate(300 160) rotate(20) scale(700 400)">
      <stop stop-color="#2CE8FF" stop-opacity="0.35"/>
      <stop offset="1" stop-color="#2CE8FF" stop-opacity="0"/>
    </radialGradient>
    <radialGradient id="orbB" cx="0" cy="0" r="1" gradientUnits="userSpaceOnUse" gradientTransform="translate(1330 730) rotate(10) scale(760 460)">
      <stop stop-color="#9B72FF" stop-opacity="0.28"/>
      <stop offset="1" stop-color="#9B72FF" stop-opacity="0"/>
    </radialGradient>
    <linearGradient id="line" x1="180" y1="210" x2="1420" y2="690" gradientUnits="userSpaceOnUse">
      <stop stop-color="#47EDFF"/>
      <stop offset="1" stop-color="#9C78FF"/>
    </linearGradient>
    <linearGradient id="word" x1="0" y1="0" x2="1" y2="1">
      <stop stop-color="#F2FDFF"/>
      <stop offset="1" stop-color="#B3EAFF"/>
    </linearGradient>
  </defs>

  <rect width="1600" height="900" fill="url(#bg)"/>
  <rect width="1600" height="900" fill="url(#orbA)"/>
  <rect width="1600" height="900" fill="url(#orbB)"/>

  <g opacity="0.22">
    <path d="M0 150H1600" stroke="url(#line)" stroke-width="1.4"/>
    <path d="M0 260H1600" stroke="url(#line)" stroke-width="1"/>
    <path d="M0 370H1600" stroke="url(#line)" stroke-width="1.2"/>
    <path d="M0 480H1600" stroke="url(#line)" stroke-width="1"/>
    <path d="M0 590H1600" stroke="url(#line)" stroke-width="1.2"/>
    <path d="M0 700H1600" stroke="url(#line)" stroke-width="1"/>
    <path d="M150 0V900" stroke="url(#line)" stroke-width="1"/>
    <path d="M350 0V900" stroke="url(#line)" stroke-width="1.2"/>
    <path d="M550 0V900" stroke="url(#line)" stroke-width="1"/>
    <path d="M750 0V900" stroke="url(#line)" stroke-width="1.3"/>
    <path d="M950 0V900" stroke="url(#line)" stroke-width="1"/>
    <path d="M1150 0V900" stroke="url(#line)" stroke-width="1.2"/>
    <path d="M1350 0V900" stroke="url(#line)" stroke-width="1"/>
  </g>

  <circle cx="1160" cy="430" r="240" stroke="url(#line)" stroke-width="14" opacity="0.95"/>
  <circle cx="1160" cy="430" r="240" stroke="#62E4FF" stroke-width="4" opacity="0.22"/>
  <path d="M1010 282L1148 571C1152 581 1162 581 1166 571L1310 282" stroke="url(#word)" stroke-width="52" stroke-linecap="round" stroke-linejoin="round"/>

  <text x="140" y="405" fill="url(#word)" font-family="Space Grotesk, Arial, sans-serif" font-size="144" font-weight="700" letter-spacing="3">VTRAI</text>
  <text x="146" y="470" fill="#77DFFF" font-family="Space Grotesk, Arial, sans-serif" font-size="32" font-weight="500" letter-spacing="6" opacity="0.88">VECTORA INTELLIGENCE LAYER</text>

  <g opacity="0.75">
    <circle cx="180" cy="170" r="4" fill="#7FE9FF"/>
    <circle cx="280" cy="130" r="5" fill="#8E83FF"/>
    <circle cx="1430" cy="770" r="5" fill="#76E8FF"/>
    <circle cx="1280" cy="210" r="4" fill="#9A7CFF"/>
  </g>
</svg>
