<svg width="1024" height="1024" viewBox="0 0 1024 1024" fill="none" xmlns="http://www.w3.org/2000/svg">
  <defs>
    <linearGradient id="bg" x1="110" y1="90" x2="910" y2="934" gradientUnits="userSpaceOnUse">
      <stop stop-color="#071120"/>
      <stop offset="0.58" stop-color="#09162B"/>
      <stop offset="1" stop-color="#040811"/>
    </linearGradient>
    <radialGradient id="auraA" cx="0" cy="0" r="1" gradientUnits="userSpaceOnUse" gradientTransform="translate(290 250) rotate(38) scale(560 420)">
      <stop stop-color="#3AE8FF" stop-opacity="0.34"/>
      <stop offset="1" stop-color="#3AE8FF" stop-opacity="0"/>
    </radialGradient>
    <radialGradient id="auraB" cx="0" cy="0" r="1" gradientUnits="userSpaceOnUse" gradientTransform="translate(786 772) rotate(18) scale(500 360)">
      <stop stop-color="#8F73FF" stop-opacity="0.28"/>
      <stop offset="1" stop-color="#8F73FF" stop-opacity="0"/>
    </radialGradient>
    <linearGradient id="frame" x1="238" y1="214" x2="794" y2="810" gradientUnits="userSpaceOnUse">
      <stop stop-color="#59F0FF"/>
      <stop offset="0.52" stop-color="#74D7FF"/>
      <stop offset="1" stop-color="#9B7BFF"/>
    </linearGradient>
    <filter id="softGlow" x="-20%" y="-20%" width="140%" height="140%">
      <feGaussianBlur stdDeviation="14"/>
    </filter>
  </defs>

  <rect x="64" y="64" width="896" height="896" rx="228" fill="url(#bg)"/>
  <rect x="64" y="64" width="896" height="896" rx="228" fill="url(#auraA)"/>
  <rect x="64" y="64" width="896" height="896" rx="228" fill="url(#auraB)"/>

  <rect x="160" y="160" width="704" height="704" rx="190" stroke="url(#frame)" stroke-width="16" opacity="0.26"/>
  <circle cx="512" cy="512" r="288" stroke="url(#frame)" stroke-width="28"/>
  <circle cx="512" cy="512" r="248" stroke="#85ECFF" stroke-width="2" opacity="0.18"/>

  <path d="M290 260L404 260L508 510L616 260L730 260L538 730L452 730L290 260Z" fill="url(#frame)"/>

  <g opacity="0.2" filter="url(#softGlow)">
    <circle cx="512" cy="512" r="254" stroke="#64E9FF" stroke-width="16"/>
  </g>

  <circle cx="254" cy="280" r="8" fill="#74EEFF"/>
  <circle cx="760" cy="728" r="8" fill="#9E86FF"/>
  <circle cx="720" cy="276" r="5" fill="#89F0FF" opacity="0.78"/>
  <circle cx="294" cy="748" r="5" fill="#A48EFF" opacity="0.78"/>
</svg>
