<svg width="1600" height="900" viewBox="0 0 1600 900" fill="none" xmlns="http://www.w3.org/2000/svg">
  <defs>
    <linearGradient id="bg" x1="120" y1="64" x2="1486" y2="850" gradientUnits="userSpaceOnUse">
      <stop stop-color="#07101F"/>
      <stop offset="0.6" stop-color="#081427"/>
      <stop offset="1" stop-color="#04070F"/>
    </linearGradient>
    <radialGradient id="orbA" cx="0" cy="0" r="1" gradientUnits="userSpaceOnUse" gradientTransform="translate(248 188) rotate(12) scale(760 410)">
      <stop stop-color="#39E8FF" stop-opacity="0.28"/>
      <stop offset="1" stop-color="#39E8FF" stop-opacity="0"/>
    </radialGradient>
    <radialGradient id="orbB" cx="0" cy="0" r="1" gradientUnits="userSpaceOnUse" gradientTransform="translate(1352 742) rotate(8) scale(760 440)">
      <stop stop-color="#8B72FF" stop-opacity="0.24"/>
      <stop offset="1" stop-color="#8B72FF" stop-opacity="0"/>
    </radialGradient>
    <linearGradient id="grid" x1="160" y1="170" x2="1440" y2="720" gradientUnits="userSpaceOnUse">
      <stop stop-color="#48ECFF"/>
      <stop offset="1" stop-color="#9C7BFF"/>
    </linearGradient>
    <linearGradient id="word" x1="180" y1="248" x2="708" y2="552" gradientUnits="userSpaceOnUse">
      <stop stop-color="#F3FEFF"/>
      <stop offset="1" stop-color="#A8E5FF"/>
    </linearGradient>
    <linearGradient id="ring" x1="984" y1="224" x2="1352" y2="612" gradientUnits="userSpaceOnUse">
      <stop stop-color="#58F0FF"/>
      <stop offset="0.52" stop-color="#74D8FF"/>
      <stop offset="1" stop-color="#9A7CFF"/>
    </linearGradient>
  </defs>

  <rect width="1600" height="900" fill="url(#bg)"/>
  <rect width="1600" height="900" fill="url(#orbA)"/>
  <rect width="1600" height="900" fill="url(#orbB)"/>

  <g opacity="0.18">
    <path d="M70 170H1530" stroke="url(#grid)" stroke-width="1.2"/>
    <path d="M70 292H1530" stroke="url(#grid)" stroke-width="0.9"/>
    <path d="M70 414H1530" stroke="url(#grid)" stroke-width="1.1"/>
    <path d="M70 536H1530" stroke="url(#grid)" stroke-width="0.9"/>
    <path d="M70 658H1530" stroke="url(#grid)" stroke-width="1.1"/>
    <path d="M70 780H1530" stroke="url(#grid)" stroke-width="0.9"/>
    <path d="M184 96V820" stroke="url(#grid)" stroke-width="0.9"/>
    <path d="M358 96V820" stroke="url(#grid)" stroke-width="1.1"/>
    <path d="M532 96V820" stroke="url(#grid)" stroke-width="0.9"/>
    <path d="M706 96V820" stroke="url(#grid)" stroke-width="1.1"/>
    <path d="M880 96V820" stroke="url(#grid)" stroke-width="0.9"/>
    <path d="M1054 96V820" stroke="url(#grid)" stroke-width="1.1"/>
    <path d="M1228 96V820" stroke="url(#grid)" stroke-width="0.9"/>
    <path d="M1402 96V820" stroke="url(#grid)" stroke-width="1.1"/>
  </g>

  <g opacity="0.85">
    <text x="164" y="370" fill="url(#word)" font-family="Space Grotesk, Arial, sans-serif" font-size="148" font-weight="700" letter-spacing="4">VTRAI</text>
    <text x="176" y="442" fill="#7ADFFF" font-family="Space Grotesk, Arial, sans-serif" font-size="28" font-weight="500" letter-spacing="6">VECTORA TRUST LAYER</text>
    <text x="176" y="536" fill="#B7CDE6" font-family="Space Grotesk, Arial, sans-serif" font-size="32" font-weight="500" letter-spacing="0.8">Proof before momentum.</text>
    <text x="176" y="584" fill="#B7CDE6" font-family="Space Grotesk, Arial, sans-serif" font-size="32" font-weight="500" letter-spacing="0.8">Verification before action.</text>
  </g>

  <g>
    <circle cx="1160" cy="422" r="230" stroke="url(#ring)" stroke-width="26"/>
    <circle cx="1160" cy="422" r="188" stroke="#81ECFF" stroke-width="2" opacity="0.16"/>
    <path d="M956 290L1064 226L1162 452L1434 96L1518 96L1204 656L1148 656L956 290Z" fill="url(#ring)"/>
  </g>

  <g opacity="0.72">
    <circle cx="190" cy="170" r="4" fill="#81EFFF"/>
    <circle cx="286" cy="132" r="5" fill="#9583FF"/>
    <circle cx="1430" cy="754" r="5" fill="#75EAFF"/>
    <circle cx="1318" cy="224" r="4" fill="#A07FFF"/>
  </g>
</svg>
